<svg width="56" height="56" viewBox="0 0 56 56" fill="none" xmlns="http://www.w3.org/2000/svg">
<circle cx="28" cy="28" r="28" fill="white"/>
<path d="M34.7986 13.1768H21.2019C16.7768 13.1768 13.1768 16.7768 13.1768 21.2019V34.7988C13.1768 39.2237 16.7768 42.8237 21.2019 42.8237H34.7988C39.2237 42.8237 42.8237 39.2237 42.8237 34.7988V21.2019C42.8237 16.7768 39.2237 13.1768 34.7986 13.1768V13.1768ZM28.0002 36.1066C23.5303 36.1066 19.8939 32.4702 19.8939 28.0002C19.8939 23.5303 23.5303 19.8939 28.0002 19.8939C32.4702 19.8939 36.1066 23.5303 36.1066 28.0002C36.1066 32.4702 32.4702 36.1066 28.0002 36.1066ZM36.3005 21.8056C34.9795 21.8056 33.9051 20.7312 33.9051 19.4103C33.9051 18.0893 34.9795 17.0147 36.3005 17.0147C37.6214 17.0147 38.696 18.0893 38.696 19.4103C38.696 20.7312 37.6214 21.8056 36.3005 21.8056Z" fill="#1C1C1C"/>
<path d="M27.9992 21.6318C24.4878 21.6318 21.6309 24.4886 21.6309 28.0002C21.6309 31.5115 24.4878 34.3685 27.9992 34.3685C31.5108 34.3685 34.3675 31.5115 34.3675 28.0002C34.3675 24.4886 31.5108 21.6318 27.9992 21.6318Z" fill="#1C1C1C"/>
<path d="M36.2999 18.7529C35.9375 18.7529 35.6426 19.0479 35.6426 19.4102C35.6426 19.7726 35.9375 20.0675 36.2999 20.0675C36.6625 20.0675 36.9574 19.7728 36.9574 19.4102C36.9574 19.0477 36.6625 18.7529 36.2999 18.7529Z" fill="#1C1C1C"/>
</svg>
