<svg width="40" height="40" viewBox="0 0 40 40" fill="none" xmlns="http://www.w3.org/2000/svg">
<circle cx="20" cy="20" r="20" fill="white"/>
<path d="M24.8563 9.41162H15.1444C11.9835 9.41162 9.41211 11.9831 9.41211 15.1439V24.8559C9.41211 28.0166 11.9835 30.588 15.1444 30.588H24.8564C28.0171 30.588 30.5885 28.0166 30.5885 24.8559V15.1439C30.5885 11.9831 28.0171 9.41162 24.8563 9.41162V9.41162ZM20.0003 25.7901C16.8075 25.7901 14.2101 23.1926 14.2101 19.9998C14.2101 16.807 16.8075 14.2096 20.0003 14.2096C23.1931 14.2096 25.7906 16.807 25.7906 19.9998C25.7906 23.1926 23.1931 25.7901 20.0003 25.7901ZM25.929 15.5751C24.9855 15.5751 24.2181 14.8077 24.2181 13.8641C24.2181 12.9206 24.9855 12.153 25.929 12.153C26.8726 12.153 27.6402 12.9206 27.6402 13.8641C27.6402 14.8077 26.8726 15.5751 25.929 15.5751Z" fill="#1C1C1C"/>
<path d="M20 15.4512C17.4919 15.4512 15.4512 17.4917 15.4512 20C15.4512 22.5081 17.4919 24.5488 20 24.5488C22.5082 24.5488 24.5488 22.5081 24.5488 20C24.5488 17.4917 22.5082 15.4512 20 15.4512Z" fill="#1C1C1C"/>
<path d="M25.9285 13.3945C25.6697 13.3945 25.459 13.6052 25.459 13.864C25.459 14.1229 25.6697 14.3335 25.9285 14.3335C26.1875 14.3335 26.3981 14.123 26.3981 13.864C26.3981 13.605 26.1875 13.3945 25.9285 13.3945Z" fill="#1C1C1C"/>
</svg>
