<svg width="56" height="56" viewBox="0 0 56 56" fill="none" xmlns="http://www.w3.org/2000/svg">
<path d="M28 0C12.5384 0 0 12.5384 0 28C0 43.4616 12.5384 56 28 56C43.4616 56 56 43.4616 56 28C56 12.5384 43.4616 0 28 0ZM19.8635 42.3281H13.0443V21.8122H19.8635V42.3281ZM16.4541 19.0107H16.4097C14.1213 19.0107 12.6414 17.4355 12.6414 15.4667C12.6414 13.4536 14.1666 11.9219 16.4994 11.9219C18.8322 11.9219 20.2677 13.4536 20.3121 15.4667C20.3121 17.4355 18.8322 19.0107 16.4541 19.0107ZM44.4524 42.3281H37.634V31.3526C37.634 28.5943 36.6466 26.7131 34.1793 26.7131C32.2955 26.7131 31.1736 27.9821 30.6805 29.207C30.5002 29.6453 30.4562 30.258 30.4562 30.8711V42.3281H23.6374C23.6374 42.3281 23.7267 23.7369 23.6374 21.8122H30.4562V24.717C31.3624 23.3191 32.9838 21.3307 36.6017 21.3307C41.0883 21.3307 44.4524 24.2629 44.4524 30.5643V42.3281Z" fill="white"/>
</svg>
