<svg width="365" height="65" viewBox="0 0 365 65" fill="none" xmlns="http://www.w3.org/2000/svg">
<g clip-path="url(#clip0_247_792)">
<path d="M64.5955 26.2029C69.4171 26.2029 71.8074 24.4014 73.8656 21.0827C74.0337 20.7544 74.2428 20.5502 74.4929 20.5502C74.661 20.5502 74.8701 20.6743 74.8701 20.8785C74.8701 20.9586 74.8291 21.1227 74.743 21.2868C73.3572 24.0291 72.3527 26.7313 71.2621 29.5176C71.2211 29.7217 71.094 29.8859 70.9259 29.8859C70.7578 29.8859 70.6307 29.8058 70.5487 29.6417C70.1715 29.0692 69.6262 28.865 67.9493 28.821C61.5739 28.6969 55.6617 28.6969 51.1723 28.6969C49.2412 28.6969 47.1871 28.821 45.2601 28.821C44.8419 28.821 44.6328 28.6168 44.6328 28.4127C44.6328 28.1244 44.8419 27.9603 45.2601 27.9603C47.9456 27.9603 49.2863 26.9355 49.2863 23.7008V5.2777C49.2863 2.04305 47.9456 1.01821 45.2601 1.01821C44.8419 1.01821 44.6328 0.854071 44.6328 0.565835C44.6328 0.361667 44.8419 0.157501 45.2601 0.157501C47.1871 0.157501 49.2453 0.281602 51.1723 0.281602C53.0992 0.281602 55.1574 0.157501 57.0844 0.157501C57.4616 0.157501 57.6707 0.361667 57.6707 0.565835C57.6707 0.854071 57.4616 1.01821 57.0844 1.01821C54.3989 1.01821 53.0172 2.04305 53.0172 5.2777V24.0731C53.0172 25.6304 53.6445 26.2029 55.2394 26.2029H64.5955Z" fill="white"/>
<path d="M112.237 22.4358C111.987 21.8633 111.523 21.535 110.687 21.535H95.4636C94.6231 21.535 94.1639 21.8633 93.9138 22.4358L93.3275 23.6648C92.8232 24.6896 92.6141 25.4262 92.6141 26.0788C92.6141 27.4319 93.6637 27.9643 95.9269 27.9643C96.3041 27.9643 96.5132 28.1284 96.5132 28.4167C96.5132 28.6208 96.3041 28.825 95.9269 28.825C93.9958 28.825 92.278 28.7009 90.351 28.7009C88.4199 28.7009 86.8291 28.825 84.898 28.825C84.4798 28.825 84.2666 28.6208 84.2666 28.4167C84.2666 28.1284 84.4757 27.9643 84.898 27.9643C86.9521 27.9643 88.2108 26.7353 89.6376 23.6648L98.1081 5.56594C98.6534 4.421 98.9486 3.47622 98.9486 2.77965C98.9486 1.55064 98.0261 1.01821 96.054 1.01821C95.6358 1.01821 95.4267 0.854071 95.4267 0.565835C95.4267 0.361667 95.6358 0.157501 96.054 0.157501C98.5714 0.157501 100.753 0.281602 103.266 0.281602C105.779 0.281602 108.005 0.157501 110.523 0.157501C110.9 0.157501 111.109 0.361667 111.109 0.565835C111.109 0.854071 110.9 1.01821 110.523 1.01821C108.51 1.01821 107.587 1.55064 107.587 2.81968C107.587 3.47622 107.882 4.41699 108.428 5.56193L116.939 23.6608C118.366 26.7313 119.58 27.9603 121.679 27.9603C122.056 27.9603 122.265 28.1244 122.265 28.4127C122.265 28.6168 122.056 28.821 121.679 28.821C119.707 28.821 117.948 28.6969 115.976 28.6969C114.045 28.6969 112.159 28.821 110.232 28.821C109.855 28.821 109.6 28.6168 109.6 28.4127C109.6 28.1244 109.85 27.9603 110.232 27.9603C112.454 27.9603 113.504 27.4279 113.504 26.0747C113.504 25.4182 113.294 24.6816 112.831 23.6608L112.237 22.4358ZM104.016 4.66119C103.553 3.68039 103.43 3.43219 103.053 3.43219C102.716 3.43219 102.548 3.67639 102.089 4.66119L96.0089 17.804C95.9228 18.0081 95.8408 18.2123 95.8408 18.3764C95.8408 18.7047 96.136 18.8288 96.6362 18.8288H109.51C110.014 18.8288 110.265 18.7047 110.265 18.3764C110.265 18.2123 110.183 18.0081 110.096 17.804L104.016 4.66119Z" fill="white"/>
<path d="M190.071 14.5333C189.903 14.3291 189.735 14.205 189.525 14.205C189.275 14.205 189.021 14.3291 188.771 14.5333L184.159 18.3404C183.445 18.9529 183.109 19.6495 183.109 20.6343V23.7048C183.109 26.9395 184.495 27.9643 187.176 27.9643C187.553 27.9643 187.763 28.1284 187.763 28.4167C187.763 28.6208 187.553 28.825 187.176 28.825C185.245 28.825 183.191 28.7009 181.264 28.7009C179.333 28.7009 177.279 28.825 175.352 28.825C174.934 28.825 174.725 28.6208 174.725 28.4167C174.725 28.1284 174.934 27.9643 175.352 27.9643C178.037 27.9643 179.378 26.9395 179.378 23.7048V5.2777C179.378 2.04305 178.037 1.01821 175.352 1.01821C174.934 1.01821 174.725 0.854071 174.725 0.565835C174.725 0.361667 174.934 0.157501 175.352 0.157501C177.283 0.157501 179.337 0.281602 181.264 0.281602C183.195 0.281602 185.249 0.157501 187.176 0.157501C187.553 0.157501 187.763 0.361667 187.763 0.565835C187.763 0.854071 187.553 1.01821 187.176 1.01821C184.491 1.01821 183.109 2.04305 183.109 5.2777V14.205C183.109 14.6574 183.277 14.8616 183.486 14.8616C183.613 14.8616 183.781 14.7815 183.991 14.6174L195.483 4.87337C197.496 3.15196 198.082 2.45538 198.082 1.84288C198.082 1.27041 197.41 1.02221 196.319 1.02221C195.901 1.02221 195.688 0.858075 195.688 0.569839C195.688 0.365671 195.897 0.161505 196.319 0.161505C198.246 0.161505 200.259 0.285606 202.19 0.285606C204.162 0.285606 206.134 0.161505 208.061 0.161505C208.439 0.161505 208.648 0.365671 208.648 0.569839C208.648 0.858075 208.439 1.02221 208.061 1.02221C205.63 1.02221 203.572 2.29125 200.009 5.19763L192.797 11.1745C192.588 11.3387 192.502 11.5028 192.502 11.707C192.502 11.8711 192.584 12.0753 192.752 12.2794L202.399 23.6207C205.126 26.7753 206.762 27.9603 209.111 27.9603C209.488 27.9603 209.697 28.1244 209.697 28.4127C209.697 28.6168 209.488 28.821 209.111 28.821C207.139 28.821 205.044 28.6969 203.072 28.6969C201.1 28.6969 199.005 28.821 197.074 28.821C196.655 28.821 196.442 28.6168 196.442 28.4127C196.442 28.1244 196.651 27.9603 197.074 27.9603C198.668 27.9603 199.505 27.632 199.505 26.8154C199.505 26.0387 198.791 24.9338 197.41 23.2925L190.071 14.5333Z" fill="white"/>
<path d="M236.495 29.3974C230.247 29.3974 227.689 27.9242 225.844 27.9242C225.048 27.9242 224.794 28.2125 224.417 28.825C224.335 29.0291 224.208 29.1132 224.04 29.1132C223.83 29.1132 223.703 28.9891 223.621 28.7449C222.658 25.7985 221.649 22.8481 220.309 19.9417C220.268 19.8176 220.227 19.6975 220.227 19.5734C220.227 19.3292 220.354 19.2451 220.522 19.2451C220.731 19.2451 220.899 19.3692 221.108 19.7375C224.421 25.182 230.001 26.8233 236.499 26.8233C240.985 26.8233 244.634 25.3902 244.634 21.1747C244.634 12.0833 222.199 20.0698 222.199 7.90783C222.199 2.95177 226.602 -0.402977 233.732 -0.402977C237.84 -0.402977 240.443 0.417697 241.952 0.417697C242.793 0.417697 243.043 0.0894281 243.293 -0.56711C243.375 -0.731244 243.502 -0.855347 243.711 -0.855347C243.879 -0.855347 244.006 -0.731246 244.088 -0.487046C245.011 2.29924 246.019 5.12155 247.151 7.78373C247.233 7.94787 247.233 8.02793 247.233 8.112C247.233 8.3562 247.106 8.44027 246.938 8.44027C246.77 8.44027 246.602 8.31617 246.352 7.94787C243.879 3.72841 239.976 2.17514 233.814 2.17514C227.984 2.17514 225.721 4.42899 225.721 7.4995C225.721 15.6061 248.41 7.90783 248.41 20.7263C248.406 27.3077 242.198 29.3974 236.495 29.3974Z" fill="white"/>
<path d="M289.417 16.4949C289.417 15.7183 289.122 15.43 288.326 15.43H270.126C269.331 15.43 268.995 15.7183 268.995 16.4949V23.7008C268.995 26.9355 270.381 27.9603 273.062 27.9603C273.439 27.9603 273.648 28.1244 273.648 28.4127C273.648 28.6168 273.439 28.821 273.062 28.821C271.131 28.821 269.077 28.6969 267.15 28.6969C265.219 28.6969 263.165 28.821 261.238 28.821C260.819 28.821 260.61 28.6168 260.61 28.4127C260.61 28.1244 260.819 27.9603 261.238 27.9603C263.923 27.9603 265.264 26.9355 265.264 23.7008V5.2777C265.264 2.04305 263.923 1.01821 261.238 1.01821C260.819 1.01821 260.61 0.854071 260.61 0.565835C260.61 0.361667 260.819 0.157501 261.238 0.157501C263.169 0.157501 265.223 0.281602 267.15 0.281602C269.077 0.281602 271.135 0.157501 273.062 0.157501C273.439 0.157501 273.648 0.361667 273.648 0.565835C273.648 0.854071 273.439 1.01821 273.062 1.01821C270.376 1.01821 268.995 2.04305 268.995 5.2777V11.5028C268.995 12.2794 269.331 12.5677 270.126 12.5677H288.326C289.122 12.5677 289.417 12.2794 289.417 11.5028V5.2777C289.417 2.04305 288.076 1.01821 285.391 1.01821C284.972 1.01821 284.763 0.854071 284.763 0.565835C284.763 0.361667 284.972 0.157501 285.391 0.157501C287.322 0.157501 289.331 0.281602 291.303 0.281602C293.234 0.281602 295.288 0.157501 297.215 0.157501C297.592 0.157501 297.801 0.361667 297.801 0.565835C297.801 0.854071 297.592 1.01821 297.215 1.01821C294.529 1.01821 293.148 2.04305 293.148 5.2777V23.7048C293.148 26.9395 294.533 27.9643 297.215 27.9643C297.592 27.9643 297.801 28.1284 297.801 28.4167C297.801 28.6208 297.592 28.825 297.215 28.825C295.284 28.825 293.23 28.7009 291.303 28.7009C289.331 28.7009 287.318 28.825 285.391 28.825C284.972 28.825 284.763 28.6208 284.763 28.4167C284.763 28.1284 284.972 27.9643 285.391 27.9643C288.076 27.9643 289.417 26.9395 289.417 23.7048V16.4949Z" fill="white"/>
<path d="M314.283 5.2777C314.283 2.04305 312.943 1.01821 310.257 1.01821C309.839 1.01821 309.63 0.854071 309.63 0.565835C309.63 0.361667 309.839 0.157501 310.257 0.157501C312.184 0.157501 314.242 0.281602 316.169 0.281602C318.1 0.281602 320.155 0.157501 322.081 0.157501C322.459 0.157501 322.668 0.361667 322.668 0.565835C322.668 0.854071 322.459 1.01821 322.081 1.01821C319.396 1.01821 318.014 2.04305 318.014 5.2777V23.7048C318.014 26.9395 319.4 27.9643 322.081 27.9643C322.459 27.9643 322.668 28.1284 322.668 28.4167C322.668 28.6208 322.459 28.825 322.081 28.825C320.15 28.825 318.096 28.7009 316.169 28.7009C314.238 28.7009 312.184 28.825 310.257 28.825C309.839 28.825 309.63 28.6208 309.63 28.4167C309.63 28.1284 309.839 27.9643 310.257 27.9643C312.943 27.9643 314.283 26.9395 314.283 23.7048V5.2777Z" fill="white"/>
<path d="M343.64 16.7831C343.135 16.7831 342.885 17.0273 342.885 17.5197V23.7048C342.885 26.9395 344.271 27.9643 346.953 27.9643C347.33 27.9643 347.539 28.1284 347.539 28.4167C347.539 28.6208 347.33 28.825 346.953 28.825C345.021 28.825 342.967 28.7009 341.04 28.7009C339.109 28.7009 337.055 28.825 335.128 28.825C334.71 28.825 334.501 28.6208 334.501 28.4167C334.501 28.1284 334.71 27.9643 335.128 27.9643C337.814 27.9643 339.154 26.9395 339.154 23.7048V5.2777C339.154 2.04305 337.814 1.01821 335.128 1.01821C334.71 1.01821 334.501 0.854071 334.501 0.565835C334.501 0.361667 334.71 0.157501 335.128 0.157501C337.059 0.157501 339.113 0.281602 341.04 0.281602C344.689 0.281602 348.588 0.157501 352.237 0.157501C361.085 0.157501 365.152 2.81968 365.152 8.51235C365.152 14.5733 360.622 16.7831 353.369 16.7831H343.64ZM352.697 14.205C358.441 14.205 360.917 12.6477 360.917 8.71652C360.917 4.04869 357.563 2.77965 351.733 2.77965H344.017C343.222 2.77965 342.885 3.06789 342.885 3.84452V13.4684C342.885 13.9608 343.135 14.205 343.64 14.205H352.697Z" fill="white"/>
<path d="M158.116 29.5576C159.375 26.447 160.884 23.4966 162.478 20.3861C162.519 20.262 162.56 20.1419 162.56 20.0178C162.56 19.7736 162.392 19.6895 162.224 19.6895C162.015 19.6895 161.847 19.8136 161.638 20.1419C158.952 24.6856 154.885 26.8153 149.1 26.8153C142.311 26.8153 137.321 23.0242 136.181 16.8632C136.017 15.9825 135.931 15.0537 135.931 14.0809C135.931 13.3803 135.984 12.6998 136.083 12.0392C136.972 6.17041 141.745 2.16313 148.719 2.16313C154.504 2.16313 158.153 4.29287 160.838 8.8366C161.048 9.16487 161.216 9.28897 161.425 9.28897C161.593 9.28897 161.761 9.2089 161.761 8.9607C161.761 8.8366 161.72 8.7165 161.679 8.63243C160.084 5.47784 158.784 2.53143 157.526 -0.583123C157.444 -0.827323 157.317 -0.911392 157.148 -0.911392C157.021 -0.911392 156.898 -0.831326 156.812 -0.667192C156.435 -0.0546898 156.14 0.357647 155.135 0.357647C153.627 0.357647 151.991 -0.41899 148.383 -0.41899C141.909 -0.41899 136.505 2.31125 133.709 6.887C132.909 8.19607 132.319 9.65326 131.983 11.2466C131.971 11.3066 131.962 11.3667 131.95 11.4227C131.544 13.3363 130.306 14.0208 128.24 14.0569C128.186 14.0569 128.129 14.0529 128.076 14.0529C127.953 14.0529 127.854 14.0729 127.768 14.1009C127.657 14.1329 127.575 14.189 127.526 14.261C127.477 14.3251 127.448 14.3932 127.448 14.4652C127.448 14.4732 127.448 14.4812 127.452 14.4892C127.452 14.4972 127.448 14.5052 127.448 14.5133C127.448 14.5853 127.477 14.6534 127.526 14.7174C127.579 14.7895 127.661 14.8415 127.768 14.8775C127.854 14.9056 127.957 14.9256 128.076 14.9256C128.129 14.9256 128.186 14.9256 128.24 14.9216C130.31 14.9576 131.552 15.6422 131.954 17.5638C131.958 17.5758 131.958 17.5838 131.962 17.5958C131.962 17.5958 131.962 17.5958 131.962 17.5998C131.983 17.6959 132.007 17.7879 132.028 17.884C132.053 17.9921 132.077 18.1002 132.102 18.2083C132.122 18.2923 132.147 18.3764 132.171 18.4645C132.204 18.5806 132.233 18.6927 132.266 18.8048C132.294 18.9049 132.327 19.0009 132.36 19.097C132.393 19.1931 132.422 19.2892 132.454 19.3852C132.495 19.5053 132.545 19.6254 132.59 19.7455C132.614 19.8136 132.639 19.8857 132.668 19.9537C132.713 20.0658 132.762 20.1779 132.811 20.29C132.844 20.362 132.873 20.4381 132.905 20.5102C132.946 20.6062 132.996 20.6983 133.041 20.7904C133.082 20.8785 133.123 20.9625 133.164 21.0506C133.237 21.2027 133.319 21.3468 133.401 21.495C133.418 21.523 133.43 21.551 133.447 21.575C133.545 21.7472 133.643 21.9193 133.75 22.0875C136.587 26.6672 142.077 29.3934 148.69 29.3934C152.507 29.3934 154.225 28.6168 155.734 28.6168C156.743 28.6168 157.034 29.0251 157.411 29.6417C157.493 29.8058 157.62 29.8859 157.747 29.8859C157.907 29.8859 158.03 29.8058 158.116 29.5576Z" fill="white"/>
<path d="M25.6374 13.8367C25.5103 13.7967 25.4693 13.7566 25.4693 13.6726C25.4693 13.5925 25.5103 13.5485 25.6374 13.5084C28.1548 12.7318 30.2089 10.6421 30.2089 7.53154C30.2089 3.31208 27.2323 0.161499 20.2706 0.161499C15.449 0.161499 11.1686 0.2856 6.38808 0.2856C4.4611 0.2856 2.40291 0.161499 0.475927 0.161499C0.0577307 0.161499 -0.151367 0.365665 -0.151367 0.569833C-0.151367 0.858069 0.0577307 1.0182 0.475927 1.0182C3.16141 1.0182 4.5021 2.04304 4.5021 5.27769V9.313C4.5021 12.4796 3.21061 13.5245 0.639927 13.5685C0.586627 13.5685 0.529227 13.5645 0.475927 13.5645C0.352928 13.5645 0.254529 13.5845 0.16843 13.6125C0.0577307 13.6446 -0.0242672 13.7006 -0.0734668 13.7727C-0.122666 13.8367 -0.151367 13.9048 -0.151367 13.9768C-0.151367 13.9848 -0.151366 13.9928 -0.147266 14.0008C-0.147266 14.0089 -0.151367 14.0169 -0.151367 14.0249C-0.151367 14.0969 -0.122666 14.165 -0.0734668 14.229C-0.0201672 14.3011 0.0618307 14.3531 0.16843 14.3892C0.254529 14.4172 0.357028 14.4372 0.475927 14.4372C0.529227 14.4372 0.586627 14.4372 0.639927 14.4332C3.21061 14.4772 4.5021 15.5221 4.5021 18.6887V23.7088C4.5021 26.9435 3.16141 27.9683 0.475927 27.9683C0.0577307 27.9683 -0.151367 28.1324 -0.151367 28.4167C-0.151367 28.6208 0.0577307 28.825 0.475927 28.825C2.40701 28.825 4.4611 28.7009 6.38808 28.7009C11.4228 28.7009 15.9082 28.825 20.984 28.825C28.491 28.825 31.9719 25.9586 31.9719 20.8385C31.9719 17.3156 29.3684 14.7374 25.6374 13.8367ZM8.23307 3.84452C8.23307 3.06788 8.56926 2.77965 9.36466 2.77965H19.1349C24.3336 2.77965 26.3467 4.41699 26.3467 7.89984C26.3467 10.7262 24.3336 12.6918 19.426 12.6918H9.36056C8.56516 12.6918 8.22897 12.4035 8.22897 11.6269V3.84452H8.23307ZM20.4797 26.2029H10.4553C8.86036 26.2029 8.23307 25.6304 8.23307 24.0731V16.3748C8.23307 15.5982 8.56926 15.3099 9.36466 15.3099H19.221C25.2192 15.3099 27.7776 17.4397 27.7776 21.1227C27.7776 24.2773 25.5964 26.2029 20.4797 26.2029Z" fill="white"/>
<path d="M117.477 59.0658C117.202 58.7415 116.907 58.5694 116.357 58.5694H114.061C113.828 58.5694 113.709 58.6855 113.709 58.9137V61.9602C113.709 63.4934 114.377 64.0098 115.595 64.0098C115.792 64.0098 115.911 64.1059 115.911 64.222C115.911 64.3381 115.792 64.4342 115.595 64.4342C114.631 64.4342 113.61 64.3781 112.631 64.3781C111.667 64.3781 110.65 64.4342 109.666 64.4342C109.49 64.4342 109.371 64.3381 109.371 64.222C109.371 64.1059 109.49 64.0098 109.666 64.0098C110.884 64.0098 111.569 63.4934 111.569 61.9602V53.4892C111.569 51.956 110.88 51.4395 109.666 51.4395C109.49 51.4395 109.371 51.3435 109.371 51.2274C109.371 51.1113 109.49 51.0152 109.666 51.0152C110.646 51.0152 111.667 51.0712 112.631 51.0712C114.496 51.0712 116.439 51.0152 118.305 51.0152C122.368 51.0152 124.193 52.2042 124.193 54.8103C124.193 57.2243 122.602 58.2771 119.974 58.5093C119.834 58.5294 119.777 58.6054 119.777 58.6815C119.777 58.7375 119.797 58.7976 119.855 58.8536L122.466 61.9602C123.783 63.4934 124.508 64.0098 125.509 64.0098C125.685 64.0098 125.804 64.1059 125.804 64.222C125.804 64.3381 125.685 64.4342 125.509 64.4342C124.508 64.4342 123.508 64.3781 122.524 64.3781C121.54 64.3781 120.523 64.4342 119.539 64.4342C119.363 64.4342 119.244 64.3381 119.244 64.222C119.244 64.1059 119.363 64.0098 119.539 64.0098C120.265 64.0098 120.601 63.8577 120.601 63.4534C120.601 63.0891 120.326 62.5326 119.678 61.748L117.477 59.0658ZM118.498 57.1122C120.794 57.1122 121.774 56.5197 121.774 54.9064C121.774 52.9888 120.421 52.4924 118.063 52.4924H114.217C113.844 52.4924 113.709 52.6285 113.709 52.9888V56.7639C113.709 56.9921 113.828 57.1082 114.061 57.1082H118.498V57.1122Z" fill="white"/>
<path d="M146.841 62.957C149.079 62.957 150.158 62.0562 151.158 60.523C151.256 60.3508 151.355 60.2748 151.474 60.2748C151.552 60.2748 151.63 60.3308 151.63 60.4469C151.63 60.4869 151.63 60.563 151.589 60.6391C150.941 62.0002 150.391 63.3413 149.862 64.7224C149.842 64.8385 149.785 64.9346 149.686 64.9346C149.588 64.9346 149.53 64.8946 149.469 64.7985C149.313 64.5503 149.075 64.4542 148.292 64.4342C145.644 64.3781 142.581 64.3781 139.85 64.3781C138.887 64.3781 137.87 64.4342 136.886 64.4342C136.71 64.4342 136.591 64.3381 136.591 64.222C136.591 64.1059 136.71 64.0098 136.886 64.0098C138.104 64.0098 138.788 63.4934 138.788 61.9602V53.4892C138.788 51.9559 138.1 51.4395 136.886 51.4395C136.71 51.4395 136.591 51.3434 136.591 51.2274C136.591 51.1113 136.71 51.0152 136.886 51.0152C137.866 51.0152 138.887 51.0712 139.85 51.0712C142.519 51.0712 145.484 51.0712 148.034 51.0152C148.817 50.9952 149.055 50.8991 149.211 50.6509C149.268 50.5548 149.329 50.5148 149.407 50.5148C149.526 50.5148 149.584 50.5908 149.604 50.7269C149.977 52.032 150.371 53.293 150.842 54.5421C150.883 54.6381 150.883 54.6782 150.883 54.7142C150.883 54.8303 150.805 54.8864 150.728 54.8864C150.609 54.8864 150.531 54.8303 150.432 54.6382C149.649 53.1249 148.723 52.4924 146.488 52.4924H141.445C141.072 52.4924 140.937 52.6285 140.937 52.9888V56.3035C140.937 56.6678 141.076 56.7999 141.445 56.7999H144.959C146.353 56.7999 147.177 56.1474 147.177 55.0745C147.177 54.9024 147.255 54.7863 147.394 54.7863C147.493 54.7863 147.591 54.9024 147.591 55.0745C147.591 55.8992 147.534 56.6638 147.534 57.4885C147.534 58.3132 147.591 59.0778 147.591 59.9025C147.591 60.0746 147.493 60.1907 147.394 60.1907C147.255 60.1907 147.177 60.0746 147.177 59.9025C147.177 58.8296 146.353 58.1771 144.959 58.1771H141.445C141.072 58.1771 140.937 58.3132 140.937 58.6735V61.9521C140.937 62.6807 141.211 62.949 141.937 62.949H146.841V62.957Z" fill="white"/>
<path d="M175.287 61.5798C175.168 61.2916 174.954 61.1395 174.561 61.1395H167.693C167.3 61.1395 167.087 61.2916 166.968 61.5798L166.791 61.9842C166.574 62.4245 166.476 62.7688 166.476 63.0771C166.476 63.7296 166.988 64.0178 168.025 64.0178C168.222 64.0178 168.341 64.1139 168.341 64.23C168.341 64.3461 168.222 64.4422 168.025 64.4422C167.062 64.4422 166.201 64.3861 165.237 64.3861C164.258 64.3861 163.491 64.4422 162.511 64.4422C162.335 64.4422 162.216 64.3461 162.216 64.23C162.216 64.1139 162.335 64.0178 162.511 64.0178C163.434 64.0178 164.04 63.4253 164.709 61.9882L168.497 53.6894C168.751 53.1329 168.891 52.6926 168.891 52.3483C168.891 51.7158 168.44 51.4475 167.538 51.4475C167.341 51.4475 167.242 51.3515 167.242 51.2354C167.242 51.1193 167.341 51.0232 167.538 51.0232C168.833 51.0232 169.932 51.0792 171.248 51.0792C172.544 51.0792 173.642 51.0232 174.938 51.0232C175.135 51.0232 175.254 51.1193 175.254 51.2354C175.254 51.3515 175.135 51.4475 174.938 51.4475C174.057 51.4475 173.585 51.7158 173.585 52.3683C173.585 52.6926 173.724 53.1329 173.979 53.6894L177.787 61.9882C178.435 63.4253 179.042 64.0178 179.965 64.0178C180.161 64.0178 180.28 64.1139 180.28 64.23C180.28 64.3461 180.161 64.4422 179.965 64.4422C179.001 64.4422 178.12 64.3861 177.14 64.3861C176.16 64.3861 175.196 64.4422 174.216 64.4422C174.04 64.4422 173.921 64.3461 173.921 64.23C173.921 64.1139 174.04 64.0178 174.216 64.0178C175.258 64.0178 175.766 63.7296 175.766 63.0771C175.766 62.7688 175.668 62.4245 175.471 61.9842L175.287 61.5798ZM171.597 53.3931C171.379 52.9127 171.301 52.8006 171.125 52.8006C170.949 52.8006 170.871 52.9167 170.654 53.3931L168.083 59.1058C168.025 59.2219 168.005 59.318 168.005 59.374C168.005 59.5462 168.124 59.6022 168.358 59.6022H173.872C174.126 59.6022 174.245 59.5462 174.245 59.374C174.245 59.318 174.225 59.2219 174.167 59.1058L171.597 53.3931Z" fill="white"/>
<path d="M200.566 62.957C202.805 62.957 203.883 62.0562 204.884 60.523C204.982 60.3508 205.081 60.2748 205.199 60.2748C205.277 60.2748 205.355 60.3308 205.355 60.4469C205.355 60.487 205.355 60.563 205.314 60.6391C204.666 62.0002 204.174 63.3413 203.703 64.7224C203.662 64.8385 203.605 64.9346 203.506 64.9346C203.428 64.9346 203.367 64.8946 203.289 64.7985C203.133 64.5503 202.895 64.4542 202.112 64.4342C199.049 64.3781 196.38 64.3781 194.318 64.3781C193.355 64.3781 192.338 64.4342 191.354 64.4342C191.178 64.4342 191.059 64.3381 191.059 64.222C191.059 64.1059 191.178 64.0098 191.354 64.0098C192.571 64.0098 193.256 63.4934 193.256 61.9602V53.4892C193.256 51.956 192.567 51.4395 191.354 51.4395C191.178 51.4395 191.059 51.3435 191.059 51.2274C191.059 51.1113 191.178 51.0152 191.354 51.0152C192.334 51.0152 193.355 51.0712 194.318 51.0712C195.298 51.0712 196.319 51.0152 197.282 51.0152C197.479 51.0152 197.598 51.1113 197.598 51.2274C197.598 51.3435 197.479 51.4395 197.282 51.4395C196.065 51.4395 195.396 51.956 195.396 53.4892V61.9602C195.396 62.6888 195.671 62.957 196.397 62.957H200.566Z" fill="white"/>
<path d="M219.824 53.0289C219.824 52.6646 219.689 52.5324 219.316 52.5324H217.864C215.626 52.5324 214.9 53.261 214.117 54.9664C214.039 55.1586 213.941 55.2147 213.863 55.2147C213.785 55.2147 213.707 55.1586 213.707 55.0425C213.707 55.0025 213.707 54.9464 213.728 54.8704C214.121 53.5093 214.453 52.1121 214.748 50.731C214.769 50.5949 214.847 50.5188 214.945 50.5188C215.023 50.5188 215.085 50.5588 215.142 50.6549C215.298 50.9031 215.536 50.9792 216.319 51.0192C217.77 51.0753 218.988 51.0753 220.89 51.0753C222.813 51.0753 224.031 51.0753 225.482 51.0192C226.265 50.9792 226.503 50.9031 226.659 50.6549C226.716 50.5588 226.778 50.5188 226.856 50.5188C226.954 50.5188 227.032 50.5949 227.052 50.731C227.348 52.1121 227.68 53.5093 228.073 54.8704C228.094 54.9464 228.094 55.0065 228.094 55.0425C228.094 55.1586 228.016 55.2147 227.938 55.2147C227.84 55.2147 227.762 55.1586 227.684 54.9664C226.901 53.261 226.171 52.5324 223.916 52.5324H222.481C222.108 52.5324 221.973 52.6686 221.973 53.0289V61.9602C221.973 63.4934 222.661 64.0099 223.875 64.0099C224.051 64.0099 224.17 64.1059 224.17 64.222C224.17 64.3381 224.051 64.4342 223.875 64.4342C222.895 64.4342 221.874 64.3782 220.89 64.3782C219.927 64.3782 218.906 64.4342 217.926 64.4342C217.75 64.4342 217.631 64.3381 217.631 64.222C217.631 64.1059 217.75 64.0099 217.926 64.0099C219.144 64.0099 219.828 63.4934 219.828 61.9602V53.0289H219.824Z" fill="white"/>
<path d="M248.13 61.9602C248.13 63.4934 248.799 64.0098 250.016 64.0098C250.213 64.0098 250.332 64.1059 250.332 64.222C250.332 64.3381 250.213 64.4342 250.016 64.4342C249.053 64.4342 248.032 64.3781 247.052 64.3781C246.088 64.3781 245.072 64.4342 244.088 64.4342C243.911 64.4342 243.792 64.3381 243.792 64.222C243.792 64.1059 243.911 64.0098 244.088 64.0098C245.305 64.0098 245.99 63.4934 245.99 61.9602V59.298C245.99 58.8937 245.892 58.4733 245.617 58.129L241.849 53.4892C240.553 51.8999 239.77 51.4395 238.786 51.4395C238.61 51.4395 238.491 51.3435 238.491 51.2274C238.491 51.1113 238.61 51.0152 238.786 51.0152C239.766 51.0152 240.787 51.0712 241.788 51.0712C242.767 51.0712 243.788 51.0152 244.772 51.0152C244.949 51.0152 245.068 51.1113 245.068 51.2274C245.068 51.3435 244.949 51.4395 244.772 51.4395C244.067 51.4395 243.715 51.6117 243.715 51.996C243.715 52.3603 244.047 52.9368 244.674 53.7214L246.872 56.4236C246.97 56.5597 247.068 56.6358 247.187 56.6358C247.306 56.6358 247.425 56.5597 247.519 56.4236L249.68 53.7214C250.307 52.9168 250.623 52.3403 250.623 51.996C250.623 51.6117 250.27 51.4395 249.582 51.4395C249.385 51.4395 249.286 51.3435 249.286 51.2274C249.286 51.1113 249.385 51.0152 249.582 51.0152C250.525 51.0152 251.505 51.0712 252.468 51.0712C253.391 51.0712 254.391 51.0152 255.313 51.0152C255.51 51.0152 255.629 51.1113 255.629 51.2274C255.629 51.3435 255.51 51.4395 255.313 51.4395C254.334 51.4395 253.567 51.8999 252.271 53.4892L248.503 58.129C248.208 58.4733 248.13 58.8937 248.13 59.298V61.9602Z" fill="white"/>
</g>
<defs>
<clipPath id="clip0_247_792">
<rect width="365" height="65" fill="white"/>
</clipPath>
</defs>
</svg>
