<svg width="418" height="415" viewBox="0 0 418 415" fill="none" xmlns="http://www.w3.org/2000/svg">
<rect opacity="0.2" width="418" height="415" rx="207.5" fill="black"/>
<g opacity="0.2">
<path fill-rule="evenodd" clip-rule="evenodd" d="M209.96 231.456C209.084 232.07 207.916 232.069 207.04 231.455L207.033 231.451L207.019 231.441L206.972 231.407C206.932 231.378 206.875 231.338 206.804 231.286C206.661 231.181 206.456 231.03 206.198 230.834C205.683 230.443 204.957 229.874 204.088 229.147C202.355 227.695 200.039 225.598 197.716 223.018C193.158 217.957 188.167 210.594 188.167 202.341C188.167 196.744 190.28 191.351 194.078 187.356C197.88 183.356 203.065 181.083 208.5 181.083C213.936 181.083 219.121 183.356 222.923 187.356C226.721 191.351 228.834 196.744 228.834 202.341C228.834 210.594 223.843 217.957 219.285 223.018C216.961 225.598 214.645 227.695 212.912 229.147C212.044 229.874 211.317 230.443 210.802 230.834C210.545 231.03 210.34 231.181 210.197 231.286C210.125 231.338 210.069 231.378 210.029 231.407L209.982 231.441L209.967 231.451L209.963 231.454L209.96 231.456ZM200.875 201.417C200.875 197.206 204.289 193.792 208.5 193.792C212.711 193.792 216.125 197.206 216.125 201.417C216.125 205.628 212.711 209.042 208.5 209.042C204.289 209.042 200.875 205.628 200.875 201.417Z" fill="white"/>
</g>
</svg>
